<mxfile host="65bd71144e">
    <diagram id="_8cbG810vV8ou_kCPoqI" name="Page-1">
        <mxGraphModel dx="2572" dy="1300" grid="1" gridSize="10" guides="1" tooltips="1" connect="1" arrows="1" fold="1" page="1" pageScale="1" pageWidth="850" pageHeight="1100" math="0" shadow="0">
            <root>
                <mxCell id="0"/>
                <mxCell id="1" parent="0"/>
                <mxCell id="20" value="" style="edgeStyle=none;html=1;fontSize=18;exitX=0;exitY=0.5;exitDx=0;exitDy=0;entryX=1;entryY=0.5;entryDx=0;entryDy=0;" parent="1" source="179" target="3" edge="1">
                    <mxGeometry relative="1" as="geometry">
                        <mxPoint x="-70" y="240" as="targetPoint"/>
                    </mxGeometry>
                </mxCell>
                <mxCell id="3" value="readConfig()" style="rounded=0;whiteSpace=wrap;html=1;fontSize=18;" parent="1" vertex="1">
                    <mxGeometry x="145" y="130" width="120" height="60" as="geometry"/>
                </mxCell>
                <mxCell id="94" value="No" style="edgeStyle=none;html=1;exitX=0.5;exitY=1;exitDx=0;exitDy=0;fontSize=21;" parent="1" source="16" edge="1">
                    <mxGeometry relative="1" as="geometry">
                        <mxPoint as="offset"/>
                        <mxPoint x="205" y="340" as="targetPoint"/>
                    </mxGeometry>
                </mxCell>
                <mxCell id="16" value="Use &lt;br&gt;Camera Topic?" style="rhombus;whiteSpace=wrap;html=1;fontSize=18;" parent="1" vertex="1">
                    <mxGeometry x="120" y="220" width="170" height="80" as="geometry"/>
                </mxCell>
                <mxCell id="17" value="" style="edgeStyle=none;html=1;fontSize=18;endArrow=none;" parent="1" source="3" target="16" edge="1">
                    <mxGeometry relative="1" as="geometry">
                        <mxPoint x="235" y="160" as="sourcePoint"/>
                        <mxPoint x="235" y="350" as="targetPoint"/>
                    </mxGeometry>
                </mxCell>
                <mxCell id="47" value="&lt;span style=&quot;color: rgb(240 , 240 , 240) ; font-family: &amp;#34;helvetica&amp;#34; ; font-size: 18px ; font-style: normal ; font-weight: 400 ; letter-spacing: normal ; text-align: center ; text-indent: 0px ; text-transform: none ; word-spacing: 0px ; display: inline ; float: none&quot;&gt;lidar_camera_calibration_rt&lt;/span&gt;" style="shape=parallelogram;perimeter=parallelogramPerimeter;whiteSpace=wrap;html=1;fixedSize=1;fontSize=18;fillColor=default;" parent="1" vertex="1">
                    <mxGeometry x="-435" y="910" width="320" height="60" as="geometry"/>
                </mxCell>
                <mxCell id="49" value="camera_info_topic &lt;br&gt;(not recommanded)" style="shape=parallelogram;perimeter=parallelogramPerimeter;whiteSpace=wrap;html=1;fixedSize=1;fontSize=18;" parent="1" vertex="1">
                    <mxGeometry x="-390" y="730" width="250" height="60" as="geometry"/>
                </mxCell>
                <mxCell id="51" value="velodyne_topic" style="shape=parallelogram;perimeter=parallelogramPerimeter;whiteSpace=wrap;html=1;fixedSize=1;fontSize=18;" parent="1" vertex="1">
                    <mxGeometry x="-390" y="820" width="250" height="60" as="geometry"/>
                </mxCell>
                <mxCell id="57" value="" style="edgeStyle=none;html=1;" parent="1" source="54" target="47" edge="1">
                    <mxGeometry relative="1" as="geometry"/>
                </mxCell>
                <mxCell id="152" value="" style="edgeStyle=none;html=1;" edge="1" parent="1" source="54" target="75">
                    <mxGeometry relative="1" as="geometry"/>
                </mxCell>
                <mxCell id="54" value="&lt;span style=&quot;color: rgb(240 , 240 , 240) ; font-family: &amp;#34;helvetica&amp;#34; ; font-size: 18px ; font-style: normal ; font-weight: 400 ; letter-spacing: normal ; text-align: center ; text-indent: 0px ; text-transform: none ; word-spacing: 0px ; display: inline ; float: none&quot;&gt;aruco_mapping node&lt;/span&gt;" style="ellipse;whiteSpace=wrap;html=1;" parent="1" vertex="1">
                    <mxGeometry x="-720" y="900" width="210" height="80" as="geometry"/>
                </mxCell>
                <mxCell id="60" value="&lt;span style=&quot;color: rgb(240 , 240 , 240) ; font-family: &amp;#34;helvetica&amp;#34; ; font-size: 18px ; font-style: normal ; font-weight: 400 ; letter-spacing: normal ; text-align: center ; text-indent: 0px ; text-transform: none ; word-spacing: 0px ; display: inline ; float: none&quot;&gt;camera's id, tvec, rvec (7x1)&lt;/span&gt;" style="text;whiteSpace=wrap;html=1;fillColor=default;" parent="1" vertex="1">
                    <mxGeometry x="-400" y="970" width="250" height="30" as="geometry"/>
                </mxCell>
                <mxCell id="62" value="" style="edgeStyle=none;html=1;" parent="1" source="61" target="49" edge="1">
                    <mxGeometry relative="1" as="geometry"/>
                </mxCell>
                <mxCell id="61" value="configuration&lt;br&gt;xxx.ini" style="shape=document;whiteSpace=wrap;html=1;boundedLbl=1;fontSize=17;" parent="1" vertex="1">
                    <mxGeometry x="-670" y="720" width="120" height="80" as="geometry"/>
                </mxCell>
                <mxCell id="77" style="edgeStyle=none;html=1;entryX=0;entryY=0.5;entryDx=0;entryDy=0;" parent="1" source="75" target="51" edge="1">
                    <mxGeometry relative="1" as="geometry"/>
                </mxCell>
                <mxCell id="75" value="&lt;span style=&quot;color: rgb(240 , 240 , 240) ; font-family: &amp;#34;helvetica&amp;#34; ; font-size: 18px ; font-style: normal ; font-weight: 400 ; letter-spacing: normal ; text-align: center ; text-indent: 0px ; text-transform: none ; word-spacing: 0px ; display: inline ; float: none&quot;&gt;lidar_pkg node&lt;/span&gt;" style="ellipse;whiteSpace=wrap;html=1;fillColor=default;" parent="1" vertex="1">
                    <mxGeometry x="-720" y="810" width="210" height="80" as="geometry"/>
                </mxCell>
                <mxCell id="78" value="external node/data" style="swimlane;startSize=80;fontSize=21;labelBackgroundColor=default;labelBorderColor=none;rounded=0;shadow=0;glass=0;sketch=0;" parent="1" vertex="1">
                    <mxGeometry x="-740" y="600" width="650" height="440" as="geometry"/>
                </mxCell>
                <mxCell id="93" value="cal" style="swimlane;horizontal=0;rounded=0;shadow=0;glass=0;labelBackgroundColor=none;labelBorderColor=none;sketch=0;fontSize=21;" parent="1" vertex="1">
                    <mxGeometry x="20" y="340" width="1360" height="1170" as="geometry"/>
                </mxCell>
                <mxCell id="111" value="" style="edgeStyle=none;html=1;fontSize=21;" parent="93" source="101" target="109" edge="1">
                    <mxGeometry relative="1" as="geometry"/>
                </mxCell>
                <mxCell id="101" value="transform()&lt;br&gt;Convert PC in Lidar to Camera's Frame" style="rounded=0;whiteSpace=wrap;html=1;shadow=0;glass=0;labelBackgroundColor=none;labelBorderColor=none;sketch=0;fontSize=21;" parent="93" vertex="1">
                    <mxGeometry x="70" y="30" width="390" height="60" as="geometry"/>
                </mxCell>
                <mxCell id="113" value="" style="edgeStyle=none;html=1;fontSize=21;" parent="93" source="109" target="112" edge="1">
                    <mxGeometry relative="1" as="geometry"/>
                </mxCell>
                <mxCell id="109" value="intensityByRange()&lt;br&gt;Extract filtered edges." style="rounded=0;whiteSpace=wrap;html=1;shadow=0;glass=0;labelBackgroundColor=none;labelBorderColor=none;sketch=0;fontSize=21;" parent="93" vertex="1">
                    <mxGeometry x="95" y="140" width="340" height="60" as="geometry"/>
                </mxCell>
                <mxCell id="110" value="In each ring (32), check the range between two adjacent points.&amp;nbsp;&lt;br&gt;Then normalized." style="text;html=1;strokeColor=none;fillColor=none;align=center;verticalAlign=middle;whiteSpace=wrap;rounded=0;shadow=0;glass=0;labelBackgroundColor=none;labelBorderColor=none;sketch=0;fontSize=21;" parent="93" vertex="1">
                    <mxGeometry x="440" y="140" width="320" height="65" as="geometry"/>
                </mxCell>
                <mxCell id="122" value="" style="edgeStyle=none;html=1;" parent="93" source="112" target="114" edge="1">
                    <mxGeometry relative="1" as="geometry"/>
                </mxCell>
                <mxCell id="137" value="" style="edgeStyle=none;html=1;" parent="93" source="112" target="136" edge="1">
                    <mxGeometry relative="1" as="geometry"/>
                </mxCell>
                <mxCell id="112" value="getCorners()&lt;br&gt;Project edge PC to camera's image" style="whiteSpace=wrap;html=1;fontSize=21;rounded=0;shadow=0;glass=0;labelBackgroundColor=none;labelBorderColor=none;sketch=0;" parent="93" vertex="1">
                    <mxGeometry x="90" y="270" width="350" height="60" as="geometry"/>
                </mxCell>
                <mxCell id="123" value="" style="edgeStyle=none;html=1;" parent="93" source="114" target="115" edge="1">
                    <mxGeometry relative="1" as="geometry"/>
                </mxCell>
                <mxCell id="114" value="1. Save all 3D edge points in c2D_to_3D" style="rounded=1;whiteSpace=wrap;html=1;shadow=0;glass=0;labelBackgroundColor=none;labelBorderColor=none;sketch=0;fontSize=21;" parent="93" vertex="1">
                    <mxGeometry x="485" y="270" width="230" height="60" as="geometry"/>
                </mxCell>
                <mxCell id="125" value="" style="edgeStyle=none;html=1;" parent="93" source="115" target="124" edge="1">
                    <mxGeometry relative="1" as="geometry"/>
                </mxCell>
                <mxCell id="115" value="2. Use mouse to click edge points and save into 2D vector&lt;br&gt;&amp;nbsp;(polygon = stored_corners)" style="rounded=1;whiteSpace=wrap;html=1;shadow=0;glass=0;labelBackgroundColor=none;labelBorderColor=none;sketch=0;fontSize=21;" parent="93" vertex="1">
                    <mxGeometry x="400" y="360" width="400" height="90" as="geometry"/>
                </mxCell>
                <mxCell id="120" value="Click mouse, and then press any key. Or the code will record zero.&amp;nbsp;&lt;br&gt;Only mask the polygon for the first time. Then the following (MAX_ITERATION-1) automatically extract and fitting." style="text;html=1;strokeColor=none;fillColor=default;align=center;verticalAlign=middle;whiteSpace=wrap;rounded=0;gradientColor=none;" parent="93" vertex="1">
                    <mxGeometry x="830" y="355" width="450" height="100" as="geometry"/>
                </mxCell>
                <mxCell id="129" value="" style="edgeStyle=none;html=1;" parent="93" source="124" target="128" edge="1">
                    <mxGeometry relative="1" as="geometry"/>
                </mxCell>
                <mxCell id="124" value="3. Extract points inside the polygon and fit line by PCL" style="whiteSpace=wrap;html=1;fontSize=21;rounded=1;shadow=0;glass=0;labelBackgroundColor=none;labelBorderColor=none;sketch=0;" parent="93" vertex="1">
                    <mxGeometry x="410" y="500" width="380" height="60" as="geometry"/>
                </mxCell>
                <mxCell id="135" value="" style="edgeStyle=none;html=1;" parent="93" source="128" target="134" edge="1">
                    <mxGeometry relative="1" as="geometry"/>
                </mxCell>
                <mxCell id="128" value="4. Find corners by intersection of lines." style="whiteSpace=wrap;html=1;fontSize=21;rounded=1;shadow=0;glass=0;labelBackgroundColor=none;labelBorderColor=none;sketch=0;" parent="93" vertex="1">
                    <mxGeometry x="410" y="620" width="380" height="60" as="geometry"/>
                </mxCell>
                <mxCell id="131" value="Corner Sequence: tr, br, bl, tl. &lt;br&gt;Line Sequence: top, right, bottom, left" style="text;html=1;strokeColor=none;fillColor=default;align=center;verticalAlign=middle;whiteSpace=wrap;rounded=0;" parent="93" vertex="1">
                    <mxGeometry x="300" y="580" width="240" height="30" as="geometry"/>
                </mxCell>
                <mxCell id="134" value="/conf/points.txt (tmp save)&lt;br&gt;Corners coordinate in LiDAR frame&amp;nbsp;&lt;br&gt;Corners coordinate in Camera frame (appended)" style="shape=document;whiteSpace=wrap;html=1;boundedLbl=1;fontSize=21;rounded=1;shadow=0;glass=0;labelBackgroundColor=none;labelBorderColor=none;sketch=0;" parent="93" vertex="1">
                    <mxGeometry x="860" y="570" width="480" height="130" as="geometry"/>
                </mxCell>
                <mxCell id="139" value="" style="edgeStyle=none;html=1;" parent="93" source="136" edge="1">
                    <mxGeometry relative="1" as="geometry">
                        <mxPoint x="510" y="800" as="targetPoint"/>
                    </mxGeometry>
                </mxCell>
                <mxCell id="136" value="find_transformation" style="whiteSpace=wrap;html=1;fontSize=21;rounded=0;shadow=0;glass=0;labelBackgroundColor=none;labelBorderColor=none;sketch=0;" parent="93" vertex="1">
                    <mxGeometry x="100" y="770" width="330" height="60" as="geometry"/>
                </mxCell>
                <mxCell id="143" value="" style="edgeStyle=none;html=1;" parent="93" source="141" target="142" edge="1">
                    <mxGeometry relative="1" as="geometry"/>
                </mxCell>
                <mxCell id="148" value="" style="edgeStyle=none;html=1;fontSize=18;" parent="93" source="141" target="147" edge="1">
                    <mxGeometry relative="1" as="geometry"/>
                </mxCell>
                <mxCell id="141" value="readArucoPose()&lt;br&gt;save board corners in camera's frame." style="whiteSpace=wrap;html=1;fontSize=21;rounded=1;shadow=0;glass=0;labelBackgroundColor=none;labelBorderColor=none;sketch=0;" parent="93" vertex="1">
                    <mxGeometry x="510" y="770" width="380" height="60" as="geometry"/>
                </mxCell>
                <mxCell id="146" value="" style="edgeStyle=none;html=1;fontSize=18;entryX=0.485;entryY=0.912;entryDx=0;entryDy=0;entryPerimeter=0;" parent="93" source="142" target="134" edge="1">
                    <mxGeometry relative="1" as="geometry">
                        <mxPoint x="1070" y="690" as="targetPoint"/>
                    </mxGeometry>
                </mxCell>
                <mxCell id="142" value="Calculate Board corners by marker pose &amp;amp; board's settings" style="whiteSpace=wrap;html=1;fontSize=21;rounded=1;shadow=0;glass=0;labelBackgroundColor=none;labelBorderColor=none;sketch=0;" parent="93" vertex="1">
                    <mxGeometry x="940" y="770" width="310" height="60" as="geometry"/>
                </mxCell>
                <mxCell id="151" value="" style="edgeStyle=none;html=1;fontSize=18;" parent="93" source="147" target="150" edge="1">
                    <mxGeometry relative="1" as="geometry"/>
                </mxCell>
                <mxCell id="147" value="readArray()&lt;br&gt;read corresponding points from file" style="whiteSpace=wrap;html=1;fontSize=21;rounded=1;shadow=0;glass=0;labelBackgroundColor=none;labelBorderColor=none;sketch=0;" parent="93" vertex="1">
                    <mxGeometry x="515" y="870" width="370" height="60" as="geometry"/>
                </mxCell>
                <mxCell id="149" value="" style="curved=1;endArrow=classic;html=1;fontSize=21;exitX=0.494;exitY=0.921;exitDx=0;exitDy=0;entryX=1;entryY=0.5;entryDx=0;entryDy=0;exitPerimeter=0;" parent="93" source="134" target="147" edge="1">
                    <mxGeometry width="50" height="50" relative="1" as="geometry">
                        <mxPoint x="-160" y="430" as="sourcePoint"/>
                        <mxPoint x="1027.5" y="780" as="targetPoint"/>
                        <Array as="points">
                            <mxPoint x="1610" y="890"/>
                        </Array>
                    </mxGeometry>
                </mxCell>
                <mxCell id="150" value="calc_RT&lt;br&gt;find RT iteratively using ICP" style="whiteSpace=wrap;html=1;fontSize=21;rounded=1;shadow=0;glass=0;labelBackgroundColor=none;labelBorderColor=none;sketch=0;" parent="93" vertex="1">
                    <mxGeometry x="530" y="970" width="340" height="60" as="geometry"/>
                </mxCell>
                <mxCell id="105" value="&lt;meta charset=&quot;utf-8&quot;&gt;&lt;span style=&quot;color: rgb(240, 240, 240); font-family: helvetica; font-size: 21px; font-style: normal; font-weight: 400; letter-spacing: normal; text-align: center; text-indent: 0px; text-transform: none; word-spacing: 0px; background-color: rgb(42, 42, 42); display: inline; float: none;&quot;&gt;Camera2Lidar R,T&lt;/span&gt;" style="curved=1;endArrow=classic;html=1;fontSize=21;entryX=0.677;entryY=-0.023;entryDx=0;entryDy=0;entryPerimeter=0;" parent="1" source="179" target="101" edge="1">
                    <mxGeometry x="-0.0655" y="51" width="50" height="50" relative="1" as="geometry">
                        <mxPoint x="519.9999999999995" y="220" as="sourcePoint"/>
                        <mxPoint x="700" y="240" as="targetPoint"/>
                        <Array as="points">
                            <mxPoint x="390" y="260"/>
                        </Array>
                        <mxPoint as="offset"/>
                    </mxGeometry>
                </mxCell>
                <mxCell id="108" value="" style="curved=1;endArrow=classic;html=1;fontSize=21;exitX=1;exitY=0.25;exitDx=0;exitDy=0;entryX=0;entryY=0.5;entryDx=0;entryDy=0;" parent="1" source="51" target="101" edge="1">
                    <mxGeometry width="50" height="50" relative="1" as="geometry">
                        <mxPoint x="460" y="690.0000000000002" as="sourcePoint"/>
                        <mxPoint x="90" y="900" as="targetPoint"/>
                        <Array as="points">
                            <mxPoint x="-70" y="490"/>
                        </Array>
                    </mxGeometry>
                </mxCell>
                <mxCell id="145" value="" style="edgeStyle=none;html=1;fontSize=18;" parent="1" source="126" target="142" edge="1">
                    <mxGeometry relative="1" as="geometry"/>
                </mxCell>
                <mxCell id="126" value="&lt;font style=&quot;font-size: 18px&quot;&gt;marker_coordinates.txt&lt;/font&gt;" style="shape=document;whiteSpace=wrap;html=1;boundedLbl=1;fontSize=17;" parent="1" vertex="1">
                    <mxGeometry x="1360" y="1100" width="200" height="90" as="geometry"/>
                </mxCell>
                <mxCell id="144" value="" style="curved=1;endArrow=classic;html=1;fontSize=21;exitX=1;exitY=0.5;exitDx=0;exitDy=0;entryX=0.25;entryY=0;entryDx=0;entryDy=0;" parent="1" source="49" target="142" edge="1">
                    <mxGeometry width="50" height="50" relative="1" as="geometry">
                        <mxPoint x="-279.99833333333345" y="817.815" as="sourcePoint"/>
                        <mxPoint x="-44.78999999999999" y="882.19" as="targetPoint"/>
                        <Array as="points">
                            <mxPoint x="20" y="1070"/>
                            <mxPoint x="870" y="1040"/>
                        </Array>
                    </mxGeometry>
                </mxCell>
                <mxCell id="179" value="config_file.txt&lt;br&gt;Camera's Projection Matrix&lt;br&gt;Camera2Lidar R,T" style="shape=document;whiteSpace=wrap;html=1;boundedLbl=1;fontSize=21;rounded=1;shadow=0;glass=0;labelBackgroundColor=none;labelBorderColor=none;sketch=0;" vertex="1" parent="1">
                    <mxGeometry x="330" y="90" width="300" height="130" as="geometry"/>
                </mxCell>
                <mxCell id="182" value="&lt;span&gt;Camera's Projection Matrix&lt;/span&gt;" style="curved=1;endArrow=classic;html=1;fontSize=21;entryX=1;entryY=0.5;entryDx=0;entryDy=0;exitX=1;exitY=0.75;exitDx=0;exitDy=0;" edge="1" parent="1" source="179" target="114">
                    <mxGeometry x="-0.157" y="-11" width="50" height="50" relative="1" as="geometry">
                        <mxPoint x="434" y="240" as="sourcePoint"/>
                        <mxPoint x="364.0300000000002" y="378.6200000000001" as="targetPoint"/>
                        <Array as="points">
                            <mxPoint x="910" y="510"/>
                        </Array>
                        <mxPoint as="offset"/>
                    </mxGeometry>
                </mxCell>
            </root>
        </mxGraphModel>
    </diagram>
</mxfile>